<?xml version="1.0" encoding="utf-8"?>
<!-- Generator: Adobe Illustrator 25.1.0, SVG Export Plug-In . SVG Version: 6.00 Build 0)  -->
<svg version="1.1" id="Layer_1" xmlns="http://www.w3.org/2000/svg" xmlns:xlink="http://www.w3.org/1999/xlink" x="0px" y="0px"
	 viewBox="0 0 50 34" style="enable-background:new 0 0 50 34;" xml:space="preserve">
<style type="text/css">
	.st0{fill:#F2D785;}
</style>
<g>
	<path class="st0" d="M10.7,9.9l11.9,0c1.6,0,1.6-2.4,0-2.4l-11.9,0C9.1,7.5,9.1,9.9,10.7,9.9z"/>
	<path class="st0" d="M45.5,7.5c-0.7,0-1.2,0.5-1.2,1.2c0,0.7,0.5,1.2,1.2,1.2c1.2,0,2.1,1,2.1,2.4c0,1.3-1.1,2.4-2.4,2.4l-6,0
		c-0.7,0-1.2,0.5-1.2,1.2c0,0.7,0.5,1.2,1.2,1.2l6,0c2.6,0,4.8-2.1,4.8-4.8C50,9.6,48.1,7.5,45.5,7.5z"/>
	<path class="st0" d="M27.8,21.8H13.1c-0.7,0-1.2,0.5-1.2,1.2s0.5,1.2,1.2,1.2h14.7c1.7,0,3.1,1.6,3.1,3.6s-1.4,3.6-3.1,3.6h-0.3
		c-0.7,0-1.2,0.5-1.2,1.2c0,0.7,0.5,1.2,1.2,1.2h0.3c3.1,0,5.5-2.7,5.5-6S30.9,21.8,27.8,21.8z"/>
	<path class="st0" d="M29.6,0.3H29c-0.7,0-1.2,0.5-1.2,1.2s0.5,1.2,1.2,1.2h0.6c3.4,0,6.1,2.7,6.1,6s-2.7,6-6.1,6H4.8
		c-2.6,0-4.8,2.1-4.8,4.8c0,2.6,2.1,4.8,4.8,4.8h2.1c0.7,0,1.2-0.5,1.2-1.2s-0.5-1.2-1.2-1.2H4.8c-1.3,0-2.4-1.1-2.4-2.4
		c0-1.3,1.1-2.4,2.4-2.4h24.8c4.7,0,8.5-3.7,8.5-8.3S34.3,0.3,29.6,0.3z"/>
	<path class="st0" d="M42.9,21.8h-6c-0.7,0-1.2,0.5-1.2,1.2s0.5,1.2,1.2,1.2h6c1.3,0,2.4,1.1,2.4,2.4c0,1.3-1.1,2.4-2.4,2.4h-1.7
		c-0.7,0-1.2,0.5-1.2,1.2s0.5,1.2,1.2,1.2h1.7c2.6,0,4.8-2.1,4.8-4.8C47.6,23.9,45.5,21.8,42.9,21.8z"/>
</g>
</svg>
