<?xml version="1.0" encoding="utf-8"?>
<!-- Generator: Adobe Illustrator 25.1.0, SVG Export Plug-In . SVG Version: 6.00 Build 0)  -->
<svg version="1.1" id="Layer_1" xmlns="http://www.w3.org/2000/svg" xmlns:xlink="http://www.w3.org/1999/xlink" x="0px" y="0px"
	 viewBox="0 0 50 47.6" style="enable-background:new 0 0 50 47.6;" xml:space="preserve">
<style type="text/css">
	.st0{fill:#F2D785;}
</style>
<g>
	<path class="st0" d="M39.8,35.8c-0.6-0.3-1.3-0.1-1.6,0.5l-4.8,9.5c-0.3,0.6-0.1,1.3,0.5,1.6c0.6,0.3,1.3,0.1,1.6-0.5l4.8-9.5
		C40.6,36.8,40.4,36.1,39.8,35.8z"/>
	<path class="st0" d="M38.8,7.8c-1,0-2.1,0.1-3.1,0.4C33.2,3.2,28.1,0,22.5,0c-8.3,0-15,6.9-15,15.5c0,0,0,0.1,0,0.1H7.3
		c-4,0-7.3,3.5-7.3,7.7C0,27.5,3.2,31,7.3,31h31.5C45,31,50,25.8,50,19.4C50,13,45,7.8,38.8,7.8z M38.8,28.6H7.3
		c-2.7,0-4.9-2.4-4.9-5.3c0-2.9,2.2-5.3,4.9-5.3h1.5c0.7,0,1.2-0.6,1.2-1.3c0-0.4-0.1-0.8-0.1-1.2c0-7.2,5.6-13.1,12.6-13.1
		c5,0,9.5,3.1,11.5,7.8c0.3,0.6,0.9,0.9,1.5,0.6c1-0.4,2.1-0.6,3.2-0.6c4.9,0,8.8,4.1,8.8,9.2C47.6,24.5,43.7,28.6,38.8,28.6z"/>
	<path class="st0" d="M20.8,35.8c-0.6-0.3-1.3-0.1-1.6,0.5l-4.8,9.5c-0.3,0.6-0.1,1.3,0.5,1.6c0.6,0.3,1.3,0.1,1.6-0.5l4.8-9.5
		C21.6,36.8,21.4,36.1,20.8,35.8z"/>
	<path class="st0" d="M11.2,35.8c-0.6-0.3-1.3-0.1-1.6,0.5l-2.4,4.8c-0.3,0.6-0.1,1.3,0.5,1.6c0.6,0.3,1.3,0.1,1.6-0.5l2.4-4.8
		C12.1,36.8,11.8,36.1,11.2,35.8z"/>
	<path class="st0" d="M30.3,35.8c-0.6-0.3-1.3-0.1-1.6,0.5l-2.4,4.8c-0.3,0.6-0.1,1.3,0.5,1.6c0.6,0.3,1.3,0.1,1.6-0.5l2.4-4.8
		C31.1,36.8,30.9,36.1,30.3,35.8z"/>
</g>
</svg>
