<?xml version="1.0" encoding="utf-8"?>
<!-- Generator: Adobe Illustrator 25.1.0, SVG Export Plug-In . SVG Version: 6.00 Build 0)  -->
<svg version="1.1" id="Layer_1" xmlns="http://www.w3.org/2000/svg" xmlns:xlink="http://www.w3.org/1999/xlink" x="0px" y="0px"
	 viewBox="0 0 46.65 50" style="enable-background:new 0 0 46.65 50;" xml:space="preserve">
<style type="text/css">
	.st0{fill:#262840;}
</style>
<path class="st0" d="M45.77,44.18L33.5,30.22c5.41-6.95,5.32-17.01-0.72-23.87C25.97-1.4,14.11-2.16,6.35,4.66
	C-1.4,11.48-2.16,23.35,4.66,31.1c3.7,4.2,8.88,6.35,14.08,6.35c3.28,0,6.57-0.86,9.51-2.59L40.51,48.8c0.69,0.8,1.66,1.2,2.63,1.2
	c0.82,0,1.64-0.29,2.31-0.87C46.91,47.85,47.05,45.63,45.77,44.18z M9.93,26.47C5.67,21.62,6.14,14.2,10.99,9.94
	c2.22-1.95,4.98-2.91,7.74-2.91c3.25,0,6.49,1.34,8.81,3.97c4.26,4.85,3.79,12.27-1.06,16.53C21.61,31.79,14.19,31.32,9.93,26.47z"
	/>
</svg>
