<?xml version="1.0" encoding="utf-8"?>
<!-- Generator: Adobe Illustrator 25.1.0, SVG Export Plug-In . SVG Version: 6.00 Build 0)  -->
<svg version="1.1" id="Layer_1" xmlns="http://www.w3.org/2000/svg" xmlns:xlink="http://www.w3.org/1999/xlink" x="0px" y="0px"
	 viewBox="0 0 50 50" style="enable-background:new 0 0 50 50;" xml:space="preserve">
<style type="text/css">
	.st0{fill:#F2D785;}
</style>
<path id="Path_106_" class="st0" d="M15.6,32.5l8.1-5.1v10.2L13.5,47.8c-0.5,0.5-0.5,1.3,0,1.9c0.5,0.5,1.3,0.5,1.9,0l8.3-8.3v7.3
	c0,0.7,0.6,1.3,1.3,1.3c0.7,0,1.3-0.6,1.3-1.3v-7.3l8.3,8.3c0.5,0.5,1.3,0.5,1.9,0c0.5-0.5,0.5-1.3,0-1.9L26.3,37.6V27.4l8.1,5.1
	l4.6,14c0.2,0.7,1,1.1,1.7,0.8c0.7-0.2,1.1-1,0.8-1.7l-3.6-11l7.5,4.7c1.5,0.9,2.9-1.3,1.4-2.2l-8.1-5l10.4-3.1
	c0.7-0.2,1.1-0.9,0.9-1.6c-0.2-0.7-0.9-1.1-1.6-0.9l-12.6,3.8L27.5,25l8.2-5.1l12.6,3.8c0.7,0.2,1.4-0.2,1.6-0.9
	c0.2-0.7-0.2-1.4-0.9-1.6L38.7,18l8.1-5c1.5-0.9,0.1-3.2-1.4-2.2l-7.5,4.7l3.6-11c0.2-0.7-0.2-1.4-0.8-1.7c-0.7-0.2-1.4,0.2-1.7,0.8
	l-4.6,14l-8.1,5.1V12.4L36.5,2.2c0.5-0.5,0.5-1.3,0-1.9c-0.5-0.5-1.3-0.5-1.9,0l-8.3,8.3V1.3C26.3,0.6,25.7,0,25,0
	c-0.7,0-1.3,0.6-1.3,1.3v7.3l-8.3-8.3c-0.5-0.5-1.3-0.5-1.9,0c-0.5,0.5-0.5,1.3,0,1.9l10.1,10.1v10.2l-8.1-5.1L11,3.5
	c-0.2-0.7-1-1.1-1.7-0.8c-0.7,0.2-1.1,1-0.8,1.7l3.6,11l-7.5-4.7C3.2,9.8,1.8,12,3.3,13l8.1,5L0.9,21.1c-0.7,0.2-1.1,0.9-0.9,1.6
	c0.2,0.7,0.9,1.1,1.6,0.9l12.6-3.8l8.2,5.1l-8.4,5.2L1.4,29c-0.7-0.1-1.4,0.5-1.4,1.2c-0.1,0.7,0.5,1.4,1.2,1.4l9.3,0.9L3.3,37
	c-1.5,0.9-0.1,3.2,1.4,2.2l7.3-4.6L8,45.6c-0.2,0.7,0.1,1.4,0.8,1.7c0.7,0.2,1.4-0.1,1.7-0.8L15.6,32.5z"/>
</svg>
