<?xml version="1.0" encoding="utf-8"?>
<!-- Generator: Adobe Illustrator 25.1.0, SVG Export Plug-In . SVG Version: 6.00 Build 0)  -->
<svg version="1.1" id="Layer_1" xmlns="http://www.w3.org/2000/svg" xmlns:xlink="http://www.w3.org/1999/xlink" x="0px" y="0px"
	 viewBox="0 0 50 50" style="enable-background:new 0 0 50 50;" xml:space="preserve">
<style type="text/css">
	.st0{fill:#F2D785;}
</style>
<path id="Path_2_" class="st0" d="M15,16.6c-0.1-0.1-0.2-0.1-0.3-0.2L7.5,9.2C6.4,8.1,8.1,6.4,9.2,7.5l7.1,7.1
	c0.1,0.1,0.2,0.2,0.2,0.3c2-1.7,4.5-2.8,7.2-3V1.2C23.8,0.5,24.3,0,25,0s1.2,0.5,1.2,1.2V12c2.8,0.2,5.2,1.4,7.3,3
	c0.1-0.1,0.1-0.2,0.2-0.4L41,7.5c0.5-0.5,1.2-0.4,1.7,0s0.5,1.2,0,1.7l-7.3,7.1c-0.1,0.1-0.2,0.2-0.3,0.2c1.7,2,2.8,4.5,3,7.2h10.8
	c1.6,0,1.6,2.4,0,2.4H38c-0.2,2.8-1.3,5.2-3,7.2c0.1,0.1,0.2,0.1,0.3,0.2l7.1,7.1c1.1,1.1-0.6,2.8-1.7,1.7l-7.1-7.1
	c-0.1-0.1-0.2-0.2-0.2-0.3c-2,1.7-4.5,2.8-7.2,3v10.8c0,1.6-2.4,1.6-2.4,0V38c-2.8-0.2-5.2-1.3-7.2-3c-0.1,0.1-0.1,0.2-0.2,0.3
	l-7.1,7.1c-1.1,1.1-2.8-0.6-1.7-1.7l7.1-7.1c0.1-0.1,0.2-0.2,0.3-0.2c-1.7-2-2.8-4.5-3-7.2H1.2c-1.6,0-1.6-2.4,0-2.4H12
	C12.2,21.1,13.3,18.6,15,16.6L15,16.6z M25,35.7c5.9,0,10.7-4.8,10.7-10.7S30.9,14.3,25,14.3S14.3,19.1,14.3,25S19.1,35.7,25,35.7z"
	/>
</svg>
