<?xml version="1.0" encoding="utf-8"?>
<!-- Generator: Adobe Illustrator 25.1.0, SVG Export Plug-In . SVG Version: 6.00 Build 0)  -->
<svg version="1.1" id="Layer_1" xmlns="http://www.w3.org/2000/svg" xmlns:xlink="http://www.w3.org/1999/xlink" x="0px" y="0px"
	 viewBox="0 0 50 50" style="enable-background:new 0 0 50 50;" xml:space="preserve">
<path id="Path_2_" d="M14.98,16.57c-0.12-0.06-0.23-0.14-0.34-0.25L7.49,9.18C6.37,8.05,8.05,6.37,9.18,7.49l7.14,7.14
	c0.11,0.11,0.19,0.23,0.25,0.34c1.99-1.68,4.49-2.77,7.24-3.02V1.19C23.81,0.53,24.34,0,25,0c0.66,0,1.19,0.53,1.19,1.19v10.77
	c2.75,0.25,5.25,1.35,7.25,3.03c0.06-0.13,0.14-0.25,0.25-0.36l7.3-7.14c0.47-0.46,1.22-0.45,1.68,0.02
	c0.46,0.47,0.45,1.22-0.02,1.68l-7.3,7.14c-0.1,0.1-0.22,0.18-0.34,0.23c1.68,1.99,2.78,4.5,3.03,7.25h10.77
	c1.59,0,1.59,2.38,0,2.38H38.04c-0.25,2.75-1.34,5.25-3.02,7.24c0.12,0.06,0.23,0.14,0.34,0.25l7.14,7.14
	c1.12,1.12-0.56,2.81-1.68,1.68l-7.14-7.14c-0.11-0.11-0.19-0.23-0.25-0.34c-1.99,1.68-4.49,2.77-7.24,3.02v10.77
	c0,1.59-2.38,1.59-2.38,0V38.04c-2.75-0.25-5.25-1.34-7.24-3.02c-0.06,0.12-0.14,0.23-0.25,0.34l-7.14,7.14
	c-1.12,1.12-2.81-0.56-1.68-1.68l7.14-7.14c0.11-0.11,0.23-0.19,0.34-0.25c-1.68-1.99-2.77-4.49-3.02-7.24H1.19
	c-1.59,0-1.59-2.38,0-2.38h10.77C12.21,21.06,13.3,18.56,14.98,16.57L14.98,16.57z M25,35.71c5.92,0,10.71-4.8,10.71-10.71
	S30.92,14.29,25,14.29S14.29,19.08,14.29,25S19.08,35.71,25,35.71z"/>
</svg>
