<?xml version="1.0" encoding="utf-8"?>
<!-- Generator: Adobe Illustrator 25.1.0, SVG Export Plug-In . SVG Version: 6.00 Build 0)  -->
<svg version="1.1" id="Layer_1" xmlns="http://www.w3.org/2000/svg" xmlns:xlink="http://www.w3.org/1999/xlink" x="0px" y="0px"
	 viewBox="0 0 50 35" style="enable-background:new 0 0 50 35;" xml:space="preserve">
<style type="text/css">
	.st0{fill:#FFFFFF;}
</style>
<path class="st0" d="M47.5,20.3v-1.2c0-6-5-10.9-11.1-10.9c-0.5,0-1.1,0-1.6,0.1C32.5,3.3,27.7,0,22.3,0C15,0,9.1,6.1,8.5,13.8H8.3
	c-4.6,0-8.3,3.6-8.3,8.1S3.7,30,8.3,30h4.3c0.6,2.9,3.1,5,6.1,5h19.6c0.3,0,0.7,0,1-0.1c0.4,0.1,0.9,0.1,1.3,0.1
	c5.1,0,9.3-3.9,9.3-8.8C50,24,49,21.9,47.5,20.3z M2.5,21.9c0-3.1,2.6-5.6,5.8-5.6h1.4c0.7,0,1.2-0.6,1.2-1.2
	c0-6.9,5.1-12.5,11.4-12.5c4.6,0,8.8,3.1,10.5,7.7c0.2,0.6,0.8,0.9,1.5,0.8c0.7-0.2,1.4-0.2,2.1-0.2c4.5,0,8.2,3.4,8.5,7.8
	c-1.3-0.6-2.7-1-4.3-1c-1,0-2,0.2-3,0.5c-1.9-3.3-5.3-5.5-9.1-5.5c-5.5,0-10,4.4-10.6,10.1c-2.7,0.3-4.8,2.4-5.3,4.9H8.3
	C5.1,27.5,2.5,25,2.5,21.9z M40.7,32.5c-0.4,0-0.8,0-1.1-0.1h-0.4c-0.2,0-0.5,0.1-0.7,0.1H18.8c-2.1,0-3.8-1.7-3.8-3.8
	s1.7-3.8,3.8-3.8h0.4c0.7,0,1.2-0.6,1.2-1.2c0-4.8,3.7-8.8,8.2-8.8c3.2,0,6.1,2,7.4,5c0.3,0.6,1,0.9,1.7,0.6c0.9-0.4,2-0.7,3.1-0.7
	c3.8,0,6.8,2.8,6.8,6.2C47.5,29.7,44.5,32.5,40.7,32.5z"/>
</svg>
