<?xml version="1.0" encoding="utf-8"?>
<!-- Generator: Adobe Illustrator 25.1.0, SVG Export Plug-In . SVG Version: 6.00 Build 0)  -->
<svg version="1.1" id="Layer_1" xmlns="http://www.w3.org/2000/svg" xmlns:xlink="http://www.w3.org/1999/xlink" x="0px" y="0px"
	 viewBox="0 0 52 52" style="enable-background:new 0 0 52 52;" xml:space="preserve">
<style type="text/css">
	.st0{fill:#FFFFFF;}
</style>
<path id="Path_2_" class="st0" d="M15.6,17.2c-0.1-0.1-0.2-0.1-0.3-0.2L7.8,9.5C6.6,8.4,8.4,6.6,9.5,7.8l7.4,7.4
	c0.1,0.1,0.2,0.2,0.2,0.3c2.1-1.8,4.7-2.9,7.5-3.1V1.2C24.7,0.5,25.2,0,25.9,0c0.7,0,1.2,0.5,1.2,1.2v11.2c2.9,0.2,5.4,1.5,7.6,3.1
	c0.1-0.1,0.1-0.2,0.2-0.4l7.6-7.4c0.5-0.5,1.2-0.4,1.8,0c0.5,0.4,0.5,1.2,0,1.8l-7.6,7.4c-0.1,0.1-0.2,0.2-0.3,0.2
	c1.8,2.1,2.9,4.7,3.1,7.5h11.2c1.7,0,1.7,2.5,0,2.5H39.4c-0.2,2.9-1.3,5.4-3.1,7.5c0.1,0.1,0.2,0.1,0.3,0.2l7.4,7.4
	c1.1,1.1-0.6,2.9-1.8,1.8l-7.4-7.4c-0.1-0.1-0.2-0.2-0.2-0.3c-2.1,1.8-4.7,2.9-7.5,3.1v11.2c0,1.7-2.5,1.7-2.5,0V39.4
	c-2.9-0.2-5.4-1.3-7.5-3.1c-0.1,0.1-0.1,0.2-0.2,0.3L9.7,44c-1.1,1.1-2.9-0.6-1.8-1.8l7.4-7.4c0.1-0.1,0.2-0.2,0.3-0.2
	c-1.8-2.1-2.9-4.7-3.1-7.5H1.2c-1.7,0-1.7-2.5,0-2.5h11.2C12.7,21.9,13.8,19.3,15.6,17.2L15.6,17.2z M25.9,37.1
	c6.1,0,11.1-5,11.1-11.1s-5-11.1-11.1-11.1s-11.1,5-11.1,11.1S19.8,37.1,25.9,37.1z"/>
</svg>
