<?xml version="1.0" encoding="utf-8"?>
<!-- Generator: Adobe Illustrator 25.1.0, SVG Export Plug-In . SVG Version: 6.00 Build 0)  -->
<svg version="1.1" id="Layer_1" xmlns="http://www.w3.org/2000/svg" xmlns:xlink="http://www.w3.org/1999/xlink" x="0px" y="0px"
	 viewBox="0 0 52 52" style="enable-background:new 0 0 52 52;" xml:space="preserve">
<style type="text/css">
	.st0{fill:#262840;}
</style>
<path class="st0" d="M49.81,23.81h-9.88c-0.34-2.21-1.21-4.29-2.53-6.1l6.96-6.81c0.86-0.84,0.88-2.23,0.03-3.1
	c-0.41-0.42-0.96-0.65-1.54-0.66c-0.6-0.01-1.14,0.22-1.56,0.62l-6.99,6.84c-1.81-1.33-3.9-2.19-6.11-2.53V2.19
	C28.19,0.98,27.21,0,26,0s-2.19,0.98-2.19,2.19v9.88c-2.21,0.34-4.3,1.21-6.11,2.53l-6.82-6.82C10,6.9,8.67,6.9,7.78,7.78
	c-0.88,0.88-0.88,2.21,0,3.1l6.82,6.82c-1.32,1.81-2.19,3.89-2.53,6.11H2.19C0.94,23.81,0,24.75,0,26c0,1.25,0.94,2.19,2.19,2.19
	h9.88c0.34,2.21,1.21,4.3,2.53,6.11l-6.82,6.82c-0.88,0.88-0.88,2.21,0,3.1c0.88,0.88,2.22,0.88,3.1,0l6.82-6.82
	c1.81,1.32,3.89,2.19,6.11,2.53v9.88c0,1.25,0.94,2.19,2.19,2.19c1.25,0,2.19-0.94,2.19-2.19v-9.88c2.21-0.34,4.3-1.21,6.11-2.53
	l6.82,6.82c0.46,0.46,1.05,0.7,1.66,0.66c0.53-0.03,1.04-0.27,1.44-0.66s0.63-0.9,0.66-1.44c0.04-0.61-0.2-1.2-0.66-1.66L37.4,34.3
	c1.32-1.81,2.19-3.89,2.53-6.11h9.88c1.25,0,2.19-0.94,2.19-2.19C52,24.75,51.06,23.81,49.81,23.81z M35.71,26
	c0,5.36-4.36,9.71-9.71,9.71s-9.71-4.36-9.71-9.71s4.36-9.71,9.71-9.71S35.71,20.64,35.71,26z"/>
</svg>
